<svg xmlns="http://www.w3.org/2000/svg" xmlns:xlink="http://www.w3.org/1999/xlink" version="1.1" width="512" height="512" enable-background="new 0 0 512 512" xml:space="preserve"><rect id="backgroundrect" width="100%" height="100%" x="0" y="0" fill="none" stroke="none"/>



<g class="currentLayer"><title>Layer 1</title><path id="facebook-circle-icon" d="M256.9917048215866,50 c-113.77100372314453,0 -206,92.22899627685547 -206,206 s92.22899627685547,206 206,206 s206,-92.22899627685547 206,-206 S370.7627009153366,50 256.9917048215866,50 zM317.9597223997116,171.19200134277344 c0,0 -20.604000091552734,0 -28.788999557495117,0 c-10.161999702453613,0 -12.279999732971191,4.163000106811523 -12.279999732971191,14.678000450134277 c0,8.75 0,25.40399932861328 0,25.40399932861328 h41.069000244140625 l-3.9509999752044678,44.59600067138672 h-37.11800003051758 v133.2270050048828 h-53.20000076293945 V256.43499755859375 h-27.666000366210938 v-45.15999984741211 h27.666000366210938 c0,0 0,-6.493000030517578 0,-35.564998626708984 c0,-33.37900161743164 17.849000930786133,-50.80699920654297 57.4370002746582,-50.80699920654297 c6.484000205993652,0 36.83300018310547,0 36.83300018310547,0 V171.19200134277344 z" class="selected" fill="#3b5998" fill-opacity="1"/></g></svg>