<?xml version="1.0" encoding="utf-8"?>
<!-- Generator: Adobe Illustrator 19.0.0, SVG Export Plug-In . SVG Version: 6.00 Build 0)  -->
<svg version="1.1" xmlns="http://www.w3.org/2000/svg" xmlns:xlink="http://www.w3.org/1999/xlink" x="0px" y="0px"
	 viewBox="0 0 637.6 283.6" style="enable-background:new 0 0 637.6 283.6;" xml:space="preserve">
<style type="text/css">
	.st0{fill:#4D90FE;}
</style>
<g id="Layer_1">
	<g id="XMLID_6_">
		<g>
			<path id="XMLID_198_" class="st0" d="M0,282.2v-92.8h6.5v86.7h44.2v6.1H0z"/>
			<path id="XMLID_200_" class="st0" d="M64.3,194c0-4.1,1.3-6.1,4-6.1c1.3,0,2.3,0.5,3.1,1.6c0.7,1.1,1.1,2.6,1.1,4.5
				c0,1.9-0.4,3.4-1.1,4.5c-0.7,1.1-1.8,1.7-3.1,1.7C65.6,200.2,64.3,198.1,64.3,194z M71.4,282.2h-6.3v-69h6.3V282.2z"/>
			<path id="XMLID_203_" class="st0" d="M123.7,211.9c9.6,0,16.9,3,21.8,9.1s7.3,14.9,7.3,26.6c0,11.5-2.6,20.3-7.7,26.5
				s-12.4,9.3-21.7,9.3c-4.9,0-9.3-1-13.3-3s-7-4.9-9.3-8.6h-0.6l-1.8,10.4h-3.9v-98.8h6.3v24.8c0,3.7-0.1,7.2-0.3,10.3l-0.2,5.4
				h0.4c2.6-4.1,5.8-7.2,9.5-9.1C114,212.8,118.5,211.9,123.7,211.9z M123.5,217.6c-8.1,0-13.9,2.3-17.5,7c-3.5,4.7-5.3,12.3-5.3,23
				v1.1c0,10.4,1.8,17.9,5.5,22.4c3.7,4.5,9.4,6.8,17.1,6.8c7.5,0,13.2-2.6,17-7.9c3.8-5.3,5.7-12.8,5.7-22.5
				C146.1,227.5,138.6,217.6,123.5,217.6z"/>
			<path id="XMLID_206_" class="st0" d="M199.1,211.9c2.9,0,6.1,0.3,9.4,0.9l-1.2,6c-2.9-0.7-5.9-1.1-9-1.1
				c-5.9,0-10.7,2.5-14.5,7.5c-3.8,5-5.6,11.3-5.6,18.9v38.1h-6.3v-69h5.3l0.6,12.4h0.4c2.8-5.1,5.9-8.6,9.1-10.7
				C190.6,212.9,194.5,211.9,199.1,211.9z"/>
			<path id="XMLID_208_" class="st0" d="M250.4,283.5c-10,0-17.8-3.1-23.5-9.3c-5.6-6.2-8.4-14.8-8.4-26c0-11,2.7-19.8,8.1-26.4
				c5.4-6.6,12.7-9.9,21.9-9.9c8.1,0,14.5,2.8,19.2,8.5c4.7,5.7,7,13.4,7,23.1v5.1h-49.7c0.1,9.5,2.3,16.7,6.6,21.7
				c4.3,5,10.5,7.5,18.6,7.5c3.9,0,7.4-0.3,10.4-0.8c3-0.5,6.8-1.7,11.3-3.6v5.7c-3.9,1.7-7.5,2.8-10.8,3.5
				C258,283.2,254.3,283.5,250.4,283.5z M248.5,217.4c-6.6,0-12,2.2-16,6.6c-4,4.4-6.4,10.7-7,18.9h42.7c0-8-1.7-14.3-5.2-18.8
				C259.5,219.7,254.7,217.4,248.5,217.4z"/>
			<path id="XMLID_211_" class="st0" d="M348.8,256.4c0,8.4-3,15-9,19.8c-6,4.8-14.4,7.2-25.2,7.2c-9.9,0-18.7-1.9-26.3-5.6v-18.3
				c6.3,2.8,11.6,4.8,15.9,5.9c4.3,1.1,8.3,1.7,11.9,1.7c4.3,0,7.6-0.8,9.9-2.5s3.5-4.1,3.5-7.4c0-1.8-0.5-3.4-1.5-4.9
				c-1-1.4-2.5-2.8-4.5-4.1c-2-1.3-6-3.4-12-6.3c-5.7-2.7-9.9-5.2-12.8-7.7c-2.8-2.5-5.1-5.3-6.8-8.6c-1.7-3.3-2.5-7.1-2.5-11.4
				c0-8.2,2.8-14.7,8.3-19.4c5.6-4.7,13.3-7,23.1-7c4.8,0,9.4,0.6,13.8,1.7c4.4,1.1,9,2.8,13.7,4.8l-6.3,15.3c-5-2-9-3.4-12.3-4.3
				c-3.2-0.8-6.4-1.2-9.6-1.2c-3.7,0-6.6,0.9-8.6,2.6c-2,1.7-3,4-3,6.8c0,1.7,0.4,3.2,1.2,4.5c0.8,1.3,2.1,2.5,3.8,3.7
				c1.8,1.2,5.9,3.4,12.5,6.5c8.7,4.1,14.6,8.3,17.8,12.5C347.1,245.3,348.8,250.4,348.8,256.4z"/>
			<path id="XMLID_213_" class="st0" d="M393.9,268c3.4,0,7.4-0.7,12.2-2.2v14.4c-4.8,2.2-10.7,3.2-17.8,3.2c-7.7,0-13.4-2-16.9-5.9
				s-5.3-9.8-5.3-17.6v-34.2h-9.3v-8.2l10.7-6.5l5.6-15h12.4v15.1h19.9v14.5h-19.9V260c0,2.8,0.8,4.8,2.3,6.1
				C389.4,267.4,391.4,268,393.9,268z"/>
			<path id="XMLID_215_" class="st0" d="M485,246.6c0,11.6-3,20.6-9.1,27.1c-6.1,6.5-14.6,9.8-25.5,9.8c-6.8,0-12.8-1.5-18-4.5
				c-5.2-3-9.2-7.3-12-12.9s-4.2-12.1-4.2-19.6c0-11.6,3-20.6,9.1-27c6.1-6.4,14.6-9.6,25.5-9.6c6.8,0,12.8,1.5,18,4.4
				c5.2,3,9.2,7.2,12,12.8C483.6,232.6,485,239.1,485,246.6z M435.9,246.6c0,7,1.2,12.3,3.5,15.9c2.3,3.6,6.1,5.4,11.3,5.4
				c5.2,0,8.9-1.8,11.1-5.4c2.3-3.6,3.4-8.9,3.4-16c0-7-1.1-12.3-3.4-15.8c-2.3-3.5-6-5.3-11.2-5.3c-5.2,0-8.9,1.7-11.2,5.2
				C437,234.2,435.9,239.5,435.9,246.6z"/>
			<path id="XMLID_218_" class="st0" d="M529.8,283.5c-22.1,0-33.1-12.1-33.1-36.4c0-12.1,3-21.3,9-27.6c6-6.4,14.6-9.6,25.8-9.6
				c8.2,0,15.6,1.6,22.1,4.8l-5.7,15c-3-1.2-5.9-2.2-8.5-3c-2.6-0.8-5.2-1.2-7.9-1.2c-10.1,0-15.1,7.2-15.1,21.5
				c0,13.9,5,20.8,15.1,20.8c3.7,0,7.2-0.5,10.3-1.5s6.3-2.5,9.5-4.7v16.6c-3.1,2-6.3,3.4-9.5,4.1S534.7,283.5,529.8,283.5z"/>
			<path id="XMLID_220_" class="st0" d="M586.4,243.6l8.4-10.8l19.9-21.6h21.8L608.4,242l29.9,40.2h-22.3l-20.4-28.8l-8.3,6.7v22.1
				h-19.4v-98.8h19.4v44.1l-1,16.1H586.4z"/>
		</g>
		<g>
			<path id="XMLID_166_" class="st0" d="M0,282.2v-92.8h6.5v86.7h44.2v6.1H0z"/>
			<path id="XMLID_168_" class="st0" d="M64.3,194c0-4.1,1.3-6.1,4-6.1c1.3,0,2.3,0.5,3.1,1.6c0.7,1.1,1.1,2.6,1.1,4.5
				c0,1.9-0.4,3.4-1.1,4.5c-0.7,1.1-1.8,1.7-3.1,1.7C65.6,200.2,64.3,198.1,64.3,194z M71.4,282.2h-6.3v-69h6.3V282.2z"/>
			<path id="XMLID_171_" class="st0" d="M123.7,211.9c9.6,0,16.9,3,21.8,9.1s7.3,14.9,7.3,26.6c0,11.5-2.6,20.3-7.7,26.5
				s-12.4,9.3-21.7,9.3c-4.9,0-9.3-1-13.3-3s-7-4.9-9.3-8.6h-0.6l-1.8,10.4h-3.9v-98.8h6.3v24.8c0,3.7-0.1,7.2-0.3,10.3l-0.2,5.4
				h0.4c2.6-4.1,5.8-7.2,9.5-9.1C114,212.8,118.5,211.9,123.7,211.9z M123.5,217.6c-8.1,0-13.9,2.3-17.5,7c-3.5,4.7-5.3,12.3-5.3,23
				v1.1c0,10.4,1.8,17.9,5.5,22.4c3.7,4.5,9.4,6.8,17.1,6.8c7.5,0,13.2-2.6,17-7.9c3.8-5.3,5.7-12.8,5.7-22.5
				C146.1,227.5,138.6,217.6,123.5,217.6z"/>
			<path id="XMLID_174_" class="st0" d="M199.1,211.9c2.9,0,6.1,0.3,9.4,0.9l-1.2,6c-2.9-0.7-5.9-1.1-9-1.1
				c-5.9,0-10.7,2.5-14.5,7.5c-3.8,5-5.6,11.3-5.6,18.9v38.1h-6.3v-69h5.3l0.6,12.4h0.4c2.8-5.1,5.9-8.6,9.1-10.7
				C190.6,212.9,194.5,211.9,199.1,211.9z"/>
			<path id="XMLID_176_" class="st0" d="M250.4,283.5c-10,0-17.8-3.1-23.5-9.3c-5.6-6.2-8.4-14.8-8.4-26c0-11,2.7-19.8,8.1-26.4
				c5.4-6.6,12.7-9.9,21.9-9.9c8.1,0,14.5,2.8,19.2,8.5c4.7,5.7,7,13.4,7,23.1v5.1h-49.7c0.1,9.5,2.3,16.7,6.6,21.7
				c4.3,5,10.5,7.5,18.6,7.5c3.9,0,7.4-0.3,10.4-0.8c3-0.5,6.8-1.7,11.3-3.6v5.7c-3.9,1.7-7.5,2.8-10.8,3.5
				C258,283.2,254.3,283.5,250.4,283.5z M248.5,217.4c-6.6,0-12,2.2-16,6.6c-4,4.4-6.4,10.7-7,18.9h42.7c0-8-1.7-14.3-5.2-18.8
				C259.5,219.7,254.7,217.4,248.5,217.4z"/>
			<path id="XMLID_179_" class="st0" d="M348.8,256.4c0,8.4-3,15-9,19.8c-6,4.8-14.4,7.2-25.2,7.2c-9.9,0-18.7-1.9-26.3-5.6v-18.3
				c6.3,2.8,11.6,4.8,15.9,5.9c4.3,1.1,8.3,1.7,11.9,1.7c4.3,0,7.6-0.8,9.9-2.5s3.5-4.1,3.5-7.4c0-1.8-0.5-3.4-1.5-4.9
				c-1-1.4-2.5-2.8-4.5-4.1c-2-1.3-6-3.4-12-6.3c-5.7-2.7-9.9-5.2-12.8-7.7c-2.8-2.5-5.1-5.3-6.8-8.6c-1.7-3.3-2.5-7.1-2.5-11.4
				c0-8.2,2.8-14.7,8.3-19.4c5.6-4.7,13.3-7,23.1-7c4.8,0,9.4,0.6,13.8,1.7c4.4,1.1,9,2.8,13.7,4.8l-6.3,15.3c-5-2-9-3.4-12.3-4.3
				c-3.2-0.8-6.4-1.2-9.6-1.2c-3.7,0-6.6,0.9-8.6,2.6c-2,1.7-3,4-3,6.8c0,1.7,0.4,3.2,1.2,4.5c0.8,1.3,2.1,2.5,3.8,3.7
				c1.8,1.2,5.9,3.4,12.5,6.5c8.7,4.1,14.6,8.3,17.8,12.5C347.1,245.3,348.8,250.4,348.8,256.4z"/>
			<path id="XMLID_182_" class="st0" d="M393.9,268c3.4,0,7.4-0.7,12.2-2.2v14.4c-4.8,2.2-10.7,3.2-17.8,3.2c-7.7,0-13.4-2-16.9-5.9
				s-5.3-9.8-5.3-17.6v-34.2h-9.3v-8.2l10.7-6.5l5.6-15h12.4v15.1h19.9v14.5h-19.9V260c0,2.8,0.8,4.8,2.3,6.1
				C389.4,267.4,391.4,268,393.9,268z"/>
			<path id="XMLID_184_" class="st0" d="M485,246.6c0,11.6-3,20.6-9.1,27.1c-6.1,6.5-14.6,9.8-25.5,9.8c-6.8,0-12.8-1.5-18-4.5
				c-5.2-3-9.2-7.3-12-12.9s-4.2-12.1-4.2-19.6c0-11.6,3-20.6,9.1-27c6.1-6.4,14.6-9.6,25.5-9.6c6.8,0,12.8,1.5,18,4.4
				c5.2,3,9.2,7.2,12,12.8C483.6,232.6,485,239.1,485,246.6z M435.9,246.6c0,7,1.2,12.3,3.5,15.9c2.3,3.6,6.1,5.4,11.3,5.4
				c5.2,0,8.9-1.8,11.1-5.4c2.3-3.6,3.4-8.9,3.4-16c0-7-1.1-12.3-3.4-15.8c-2.3-3.5-6-5.3-11.2-5.3c-5.2,0-8.9,1.7-11.2,5.2
				C437,234.2,435.9,239.5,435.9,246.6z"/>
			<path id="XMLID_187_" class="st0" d="M529.8,283.5c-22.1,0-33.1-12.1-33.1-36.4c0-12.1,3-21.3,9-27.6c6-6.4,14.6-9.6,25.8-9.6
				c8.2,0,15.6,1.6,22.1,4.8l-5.7,15c-3-1.2-5.9-2.2-8.5-3c-2.6-0.8-5.2-1.2-7.9-1.2c-10.1,0-15.1,7.2-15.1,21.5
				c0,13.9,5,20.8,15.1,20.8c3.7,0,7.2-0.5,10.3-1.5s6.3-2.5,9.5-4.7v16.6c-3.1,2-6.3,3.4-9.5,4.1S534.7,283.5,529.8,283.5z"/>
			<path id="XMLID_196_" class="st0" d="M586.4,243.6l8.4-10.8l19.9-21.6h21.8L608.4,242l29.9,40.2h-22.3l-20.4-28.8l-8.3,6.7v22.1
				h-19.4v-98.8h19.4v44.1l-1,16.1H586.4z"/>
		</g>
		<g id="XMLID_152_">
			<path id="XMLID_4_" class="st0" d="M0,282.2v-92.8h6.5v86.7h44.2v6.1H0z"/>
			<path id="XMLID_7_" class="st0" d="M64.3,194c0-4.1,1.3-6.1,4-6.1c1.3,0,2.3,0.5,3.1,1.6c0.7,1.1,1.1,2.6,1.1,4.5
				c0,1.9-0.4,3.4-1.1,4.5c-0.7,1.1-1.8,1.7-3.1,1.7C65.6,200.2,64.3,198.1,64.3,194z M71.4,282.2h-6.3v-69h6.3V282.2z"/>
			<path id="XMLID_10_" class="st0" d="M123.7,211.9c9.6,0,16.9,3,21.8,9.1s7.3,14.9,7.3,26.6c0,11.5-2.6,20.3-7.7,26.5
				s-12.4,9.3-21.7,9.3c-4.9,0-9.3-1-13.3-3s-7-4.9-9.3-8.6h-0.6l-1.8,10.4h-3.9v-98.8h6.3v24.8c0,3.7-0.1,7.2-0.3,10.3l-0.2,5.4
				h0.4c2.6-4.1,5.8-7.2,9.5-9.1C114,212.8,118.5,211.9,123.7,211.9z M123.5,217.6c-8.1,0-13.9,2.3-17.5,7c-3.5,4.7-5.3,12.3-5.3,23
				v1.1c0,10.4,1.8,17.9,5.5,22.4c3.7,4.5,9.4,6.8,17.1,6.8c7.5,0,13.2-2.6,17-7.9c3.8-5.3,5.7-12.8,5.7-22.5
				C146.1,227.5,138.6,217.6,123.5,217.6z"/>
			<path id="XMLID_147_" class="st0" d="M199.1,211.9c2.9,0,6.1,0.3,9.4,0.9l-1.2,6c-2.9-0.7-5.9-1.1-9-1.1
				c-5.9,0-10.7,2.5-14.5,7.5c-3.8,5-5.6,11.3-5.6,18.9v38.1h-6.3v-69h5.3l0.6,12.4h0.4c2.8-5.1,5.9-8.6,9.1-10.7
				C190.6,212.9,194.5,211.9,199.1,211.9z"/>
			<path id="XMLID_150_" class="st0" d="M250.4,283.5c-10,0-17.8-3.1-23.5-9.3c-5.6-6.2-8.4-14.8-8.4-26c0-11,2.7-19.8,8.1-26.4
				c5.4-6.6,12.7-9.9,21.9-9.9c8.1,0,14.5,2.8,19.2,8.5c4.7,5.7,7,13.4,7,23.1v5.1h-49.7c0.1,9.5,2.3,16.7,6.6,21.7
				c4.3,5,10.5,7.5,18.6,7.5c3.9,0,7.4-0.3,10.4-0.8c3-0.5,6.8-1.7,11.3-3.6v5.7c-3.9,1.7-7.5,2.8-10.8,3.5
				C258,283.2,254.3,283.5,250.4,283.5z M248.5,217.4c-6.6,0-12,2.2-16,6.6c-4,4.4-6.4,10.7-7,18.9h42.7c0-8-1.7-14.3-5.2-18.8
				C259.5,219.7,254.7,217.4,248.5,217.4z"/>
			<path id="XMLID_154_" class="st0" d="M348.8,256.4c0,8.4-3,15-9,19.8c-6,4.8-14.4,7.2-25.2,7.2c-9.9,0-18.7-1.9-26.3-5.6v-18.3
				c6.3,2.8,11.6,4.8,15.9,5.9c4.3,1.1,8.3,1.7,11.9,1.7c4.3,0,7.6-0.8,9.9-2.5s3.5-4.1,3.5-7.4c0-1.8-0.5-3.4-1.5-4.9
				c-1-1.4-2.5-2.8-4.5-4.1c-2-1.3-6-3.4-12-6.3c-5.7-2.7-9.9-5.2-12.8-7.7c-2.8-2.5-5.1-5.3-6.8-8.6c-1.7-3.3-2.5-7.1-2.5-11.4
				c0-8.2,2.8-14.7,8.3-19.4c5.6-4.7,13.3-7,23.1-7c4.8,0,9.4,0.6,13.8,1.7c4.4,1.1,9,2.8,13.7,4.8l-6.3,15.3c-5-2-9-3.4-12.3-4.3
				c-3.2-0.8-6.4-1.2-9.6-1.2c-3.7,0-6.6,0.9-8.6,2.6c-2,1.7-3,4-3,6.8c0,1.7,0.4,3.2,1.2,4.5c0.8,1.3,2.1,2.5,3.8,3.7
				c1.8,1.2,5.9,3.4,12.5,6.5c8.7,4.1,14.6,8.3,17.8,12.5C347.1,245.3,348.8,250.4,348.8,256.4z"/>
			<path id="XMLID_156_" class="st0" d="M393.9,268c3.4,0,7.4-0.7,12.2-2.2v14.4c-4.8,2.2-10.7,3.2-17.8,3.2c-7.7,0-13.4-2-16.9-5.9
				s-5.3-9.8-5.3-17.6v-34.2h-9.3v-8.2l10.7-6.5l5.6-15h12.4v15.1h19.9v14.5h-19.9V260c0,2.8,0.8,4.8,2.3,6.1
				C389.4,267.4,391.4,268,393.9,268z"/>
			<path id="XMLID_158_" class="st0" d="M485,246.6c0,11.6-3,20.6-9.1,27.1c-6.1,6.5-14.6,9.8-25.5,9.8c-6.8,0-12.8-1.5-18-4.5
				c-5.2-3-9.2-7.3-12-12.9s-4.2-12.1-4.2-19.6c0-11.6,3-20.6,9.1-27c6.1-6.4,14.6-9.6,25.5-9.6c6.8,0,12.8,1.5,18,4.4
				c5.2,3,9.2,7.2,12,12.8C483.6,232.6,485,239.1,485,246.6z M435.9,246.6c0,7,1.2,12.3,3.5,15.9c2.3,3.6,6.1,5.4,11.3,5.4
				c5.2,0,8.9-1.8,11.1-5.4c2.3-3.6,3.4-8.9,3.4-16c0-7-1.1-12.3-3.4-15.8c-2.3-3.5-6-5.3-11.2-5.3c-5.2,0-8.9,1.7-11.2,5.2
				C437,234.2,435.9,239.5,435.9,246.6z"/>
			<path id="XMLID_161_" class="st0" d="M529.8,283.5c-22.1,0-33.1-12.1-33.1-36.4c0-12.1,3-21.3,9-27.6c6-6.4,14.6-9.6,25.8-9.6
				c8.2,0,15.6,1.6,22.1,4.8l-5.7,15c-3-1.2-5.9-2.2-8.5-3c-2.6-0.8-5.2-1.2-7.9-1.2c-10.1,0-15.1,7.2-15.1,21.5
				c0,13.9,5,20.8,15.1,20.8c3.7,0,7.2-0.5,10.3-1.5s6.3-2.5,9.5-4.7v16.6c-3.1,2-6.3,3.4-9.5,4.1S534.7,283.5,529.8,283.5z"/>
			<path id="XMLID_163_" class="st0" d="M586.4,243.6l8.4-10.8l19.9-21.6h21.8L608.4,242l29.9,40.2h-22.3l-20.4-28.8l-8.3,6.7v22.1
				h-19.4v-98.8h19.4v44.1l-1,16.1H586.4z"/>
		</g>
	</g>
	<g id="XMLID_1_">
		<path id="XMLID_2_" class="st0" d="M310.6,89.7V81l-6.1,6.1C306.3,88.5,308.4,89.4,310.6,89.7z"/>
		<path id="XMLID_29_" class="st0" d="M357.4,1h-89.7c-14.2,0-25.7,11.5-25.7,25.7v89.7c0,14.2,11.5,25.7,25.7,25.7h89.7
			c14.2,0,25.7-11.5,25.7-25.7V26.7C383.1,12.5,371.6,1,357.4,1z M275.8,97.8c-3.6-6.3-5.7-13.6-5.7-21.3c0-23.7,19.2-43,43-43
			c7.8,0,15,2.1,21.3,5.7L319.6,54c-2.1-0.6-4.3-0.9-6.5-0.9c-12.9,0-23.3,10.5-23.3,23.3c0,2.3,0.3,4.5,0.9,6.5L275.8,97.8z
			 M326.2,87.2l-2.7,2.7l-0.1-0.1c-2.6,2.1-5.6,3.3-8.9,3.7v0.1h-3.8v-0.1c-3.3-0.4-6.3-1.7-8.9-3.7l-0.1,0.1l-2.7-2.7l0.1-0.1
			c-5.5-6.8-5-16.8,1.3-23c2.8-2.8,6.4-4.5,10.3-5v-0.1h3.8v0.1c3.9,0.4,7.5,2.2,10.3,5C331.1,70.4,331.5,80.4,326.2,87.2
			L326.2,87.2z M312.1,119.5c-7.7,0-15-2.1-21.3-5.6l14.9-14.9c2,0.6,4.1,0.9,6.3,0.9c9.5,0,17.7-5.7,21.3-13.9H354
			C349.7,105.1,332.6,119.5,312.1,119.5z M365.4,33.9c0,2.3-1.8,4.1-4.1,4.1h-12.5c-2.3,0-4.1-1.8-4.1-4.1V21.5
			c0-2.3,1.8-4.1,4.1-4.1h12.5c2.3,0,4.1,1.8,4.1,4.1V33.9z"/>
		<path id="XMLID_47_" class="st0" d="M301.8,84.4l8.8-8.8V63.1c-2.9,0.4-5.5,1.7-7.6,3.8C298.3,71.7,297.9,79.2,301.8,84.4z"/>
		<path id="XMLID_48_" class="st0" d="M314.5,89.7c2.2-0.3,4.3-1.2,6.1-2.5l-6.1-6.1V89.7z"/>
		<path id="XMLID_49_" class="st0" d="M314.5,63.1v12.5l8.8,8.8c3.9-5.3,3.5-12.8-1.3-17.6C320,64.8,317.3,63.5,314.5,63.1z"/>
	</g>
</g>
<g id="Layer_2">
</g>
</svg>
